# xmcd CD database file
#
# Track frame offsets:
#	150
#	12381
#	30600
#	54474
#	88510
#
# Disc length: 1186 seconds
#
# Revision: 0
# Processed by: cddbd v1.5.1PL0 Copyright (c) Steve Scherf et al.
# Submitted via: CDex 1.51
#
DISCID=3304a005
DTITLE=Studio e.go!／ソフトバンクパブリッシング - Raspberry Vol.16 IZUMO2 オリジナルドラマCD ひきこもりっ子更正計画
DYEAR=2004
DGENRE=Game
TTITLE0=猛vs.剛
TTITLE1=引きこもり剛くん
TTITLE2=ポロリもあるよ！女だらけの水着ショー
TTITLE3=大円団
TTITLE4=DataTrack(拡張プログラム)
EXTD=YEAR: 2004/06/10
EXTT0=
EXTT1=
EXTT2=
EXTT3=
EXTT4=
PLAYORDER=
